<svg xmlns="http://www.w3.org/2000/svg" viewBox="0 0 512 512">
  <rect width="512" height="512" rx="96" fill="#05070e"/>
  <path d="M64 352h384" stroke="#141a2c" stroke-width="26" stroke-linecap="round"/>
  <path d="M96 300c40-96 132-152 232-152 42 0 76 10 96 26-18 44-58 74-108 86" fill="#00e5ff" opacity=".18"/>
  <path d="M118 322c22-30 62-52 112-58 62-8 118 4 158 30l-16 30c-30-16-72-24-124-18-46 6-82 22-104 44z" fill="#00e5ff"/>
  <path d="M150 330c34-24 82-38 138-34 40 3 74 13 98 28l-10 20c-24-13-56-21-92-24-48-4-90 4-120 20z" fill="#ff2e6a"/>
  <circle cx="176" cy="376" r="34" fill="#0d1220" stroke="#eef2ff" stroke-width="12"/>
  <circle cx="352" cy="376" r="34" fill="#0d1220" stroke="#eef2ff" stroke-width="12"/>
  <path d="M64 404h56M148 404h72M248 404h56M332 404h116" stroke="#ffc734" stroke-width="12" stroke-linecap="round"/>
</svg>
